<?xml version="1.0" encoding="utf-8"?>
<!-- Svg Vector Icons : http://www.onlinewebfonts.com/icon -->
<!DOCTYPE svg PUBLIC "-//W3C//DTD SVG 1.1//EN" "http://www.w3.org/Graphics/SVG/1.1/DTD/svg11.dtd">
<svg version="1.1" xmlns="http://www.w3.org/2000/svg" xmlns:xlink="http://www.w3.org/1999/xlink" x="0px" y="0px" viewBox="0 0 256 256" enable-background="new 0 0 256 256" xml:space="preserve">
<metadata> Svg Vector Icons : http://www.onlinewebfonts.com/icon </metadata>
<g><g><g><path fill="#000000" d="M33.3,25.5c-8.8,1.9-16.7,8.3-20.6,16.5c-2.9,6.3-2.7,2.4-2.7,86c0,67.6,0.1,76.5,0.7,79.6c1.9,9.2,7.7,16.6,16.1,20.7c6.6,3.2,0.5,3,101.2,3c100.7,0,94.6,0.2,101.2-3c8.4-4.1,14.2-11.5,16.1-20.7c0.6-3.1,0.7-11,0.7-68.5c0-72.1,0.1-68.9-3-75.4c-4.1-8.4-11.5-14.2-20.7-16.1c-3.1-0.6-9.7-0.7-53.1-0.7c-46.8,0-49.6,0-49.8-0.8c-3.4-10.6-11.8-18.4-22.4-20.6C91.9,24.4,38.2,24.5,33.3,25.5z M97.4,40.9c3,1.4,5.7,4.2,7.1,7.1c1,2,1.2,3.1,1.3,7.9l0.2,5.7l57.2,0.1l57.2,0.1l2.3,1.1c4.4,2.2,7.7,6.6,8.3,11.2l0.3,2.2H128H24.8V64.3c0-8.9,0.2-12.7,0.6-14.2c1.3-4.4,5.3-8.5,9.7-9.9c1.5-0.5,8.2-0.6,30.9-0.5l29,0.1L97.4,40.9z M231.2,148.4l-0.1,57.3l-1.1,2.3c-1.5,2.9-4.3,5.7-7.2,7.2l-2.3,1.1H128H35.6l-2.3-1.1c-2.9-1.5-5.7-4.3-7.2-7.2l-1.1-2.3l-0.1-57.3l-0.1-57.3H128h103.3L231.2,148.4z"/></g></g></g>
</svg>