<?xml version="1.0" encoding="utf-8"?>
<!-- Svg Vector Icons : http://www.onlinewebfonts.com/icon -->
<!DOCTYPE svg PUBLIC "-//W3C//DTD SVG 1.1//EN" "http://www.w3.org/Graphics/SVG/1.1/DTD/svg11.dtd">
<svg version="1.1" xmlns="http://www.w3.org/2000/svg" xmlns:xlink="http://www.w3.org/1999/xlink" x="0px" y="0px" viewBox="0 0 256 256" enable-background="new 0 0 256 256" xml:space="preserve">
<metadata> Svg Vector Icons : http://www.onlinewebfonts.com/icon </metadata>
<g><g><path fill="#000000" d="M246,128c0,4.4-1.9,8.3-4.9,11l0,0l-49.2,44.3l0,0c-2.6,2.3-6.1,3.8-9.9,3.8c-8.1,0-14.7-6.6-14.7-14.7c0-4.4,1.9-8.3,4.9-11l0,0l20.6-18.5h-89.4l0,0c-8.1,0-14.7-6.6-14.7-14.7c0-8.1,6.6-14.7,14.7-14.7l0,0h89.4l-20.6-18.5l0,0c-3-2.7-4.9-6.6-4.9-11c0-8.1,6.6-14.7,14.7-14.7c3.8,0,7.3,1.4,9.9,3.8l0,0l49.2,44.2l0,0C244.1,119.7,246,123.7,246,128z M98.5,29.7h-59v196.7h59c8.1,0,14.7,6.6,14.7,14.7s-6.6,14.7-14.7,14.7H24.7c-8.1,0-14.7-6.6-14.7-14.7V14.9c0-8.1,6.6-14.7,14.7-14.7h73.8c8.1,0,14.7,6.6,14.7,14.7C113.3,23.1,106.7,29.7,98.5,29.7z"/></g></g>
</svg>