<?xml version="1.0" encoding="utf-8"?>
<!-- Svg Vector Icons : http://www.onlinewebfonts.com/icon -->
<!DOCTYPE svg PUBLIC "-//W3C//DTD SVG 1.1//EN" "http://www.w3.org/Graphics/SVG/1.1/DTD/svg11.dtd">
<svg version="1.1" xmlns="http://www.w3.org/2000/svg" xmlns:xlink="http://www.w3.org/1999/xlink" x="0px" y="0px" viewBox="0 0 256 256" enable-background="new 0 0 256 256" xml:space="preserve">
<metadata> Svg Vector Icons : http://www.onlinewebfonts.com/icon </metadata>
<g><g><g><path fill="#000000" d="M116.4,11.3c-4.3,2.2-4.8,3.5-7.3,18.1L107,41.9l-6.5,2.2c-7.1,2.4-11.2,4.1-15.5,6.7c-1.5,0.9-3,1.5-3.3,1.3c-0.3-0.2-4.8-3.4-10.1-7.1c-5.2-3.7-10.1-7.1-10.8-7.3c-2.2-0.8-5.9-0.6-8.1,0.5c-2.6,1.2-13.9,12.6-14.9,15c-0.9,2-1,5.9-0.3,7.8c0.3,0.7,3.6,5.7,7.5,11.1c3.8,5.4,7,10,7,10.2c0,0.2-1.5,3.5-3.3,7.1c-1.8,3.7-4.1,9.1-5,12.1c-1.4,4.4-1.9,5.4-2.7,5.6c-0.6,0.1-6,1.1-12.2,2.1c-6.1,1-11.9,2.2-12.9,2.6c-2.4,1-3.7,2.4-5,5c-1,2.2-1.1,2.8-1.1,11.3c0,8.5,0.1,9.1,1.1,11.3c1.2,2.7,2.6,4.1,5,5c0.9,0.4,6.7,1.6,12.9,2.6c6.2,1,11.7,1.9,12.2,2.1c0.8,0.2,1.3,1.2,2.7,5.6c0.9,3,2.7,7.7,3.9,10.4l2.2,4.9l-7.6,9.4c-4.2,5.1-8,10.2-8.4,11.2c-1.2,2.5-1.1,6.2,0.1,8.6c1.4,2.8,11.7,14.1,13.7,15.1c5,2.5,6.6,2,19.7-6.2l10.8-6.8l4.3,2.6c6,3.6,11.4,6,18.5,8.3l6,1.9l2.1,12.4c1.2,6.8,2.3,12.8,2.5,13.3c0.8,2,2.7,3.9,5,5.1c2.3,1.1,2.6,1.2,11.1,1.2c4.8,0,9.5-0.2,10.5-0.5c2.1-0.6,5.2-3.2,6.2-5.3c0.4-0.9,1.7-7.2,2.8-14c1.2-6.7,2.1-12.3,2.2-12.3c0,0,2.8-0.9,6.2-2c3.5-1.1,8.7-3.3,12.2-5.1l6.1-3.1l10.4,7.4c5.8,4.1,11.2,7.7,11.9,8c2.3,0.8,5.5,0.6,7.6-0.4c2.4-1.2,14.2-13.1,15.2-15.3c0.9-2.1,0.9-5.4,0-7.6c-0.4-0.9-3.9-6.2-7.8-11.7c-3.9-5.5-7.1-10.2-7.1-10.4c0-0.2,1.2-2.8,2.7-5.7c2.8-5.5,5.5-12.3,6.5-16.5c0.5-1.8,0.8-2.5,1.5-2.6c0.6-0.1,6-1.1,12.1-2.1c6.1-1,11.7-2.1,12.4-2.4c2.3-0.9,4.4-2.8,5.5-5.2c1.1-2.2,1.1-2.9,1.1-11.3c0-8.5-0.1-9.1-1.1-11.3c-1.2-2.5-3-4.3-5.2-5.2c-0.7-0.3-6.4-1.4-12.6-2.4s-11.7-1.9-12.2-2.1c-0.7-0.1-1.2-1.2-2.2-4.7c-0.7-2.5-2.4-7-3.6-10l-2.3-5.4l7.4-9.2c9.3-11.5,9.5-11.8,9.5-15.7c0-3.9-0.7-5.1-7.8-12.9c-3.8-4.2-6-6.4-7.4-7c-2.3-1-5.7-1.1-7.8-0.2c-0.8,0.4-6,3.5-11.5,6.9c-5.5,3.5-10.1,6.3-10.2,6.3c-0.2,0-2-1-4.1-2.3c-6.1-3.7-13-6.9-19.4-8.9c-3.3-1.1-6-1.9-6.1-2c0,0-1-5.6-2.2-12.3c-1.1-6.8-2.4-13-2.8-14c-1-2.1-4.1-4.7-6.2-5.3c-0.9-0.2-5.6-0.5-10.5-0.5C119,10,118.9,10,116.4,11.3z M139.3,85.1c21.3,5.6,35.6,26.3,33,47.9c-2.3,18.4-15.2,33.2-33.2,38c-5.1,1.3-15.5,1.5-20.4,0.2c-13.7-3.4-24.8-12.5-30.6-24.9c-2.9-6.1-3.7-10.2-3.7-18.3c0-6,0.2-7.7,1.1-11c4-14.8,15.1-26.4,29.5-31.2C122.1,83.5,132.2,83.2,139.3,85.1z"/></g></g></g>
</svg>