<?xml version="1.0" encoding="utf-8"?>
<!-- Svg Vector Icons : http://www.onlinewebfonts.com/icon -->
<!DOCTYPE svg PUBLIC "-//W3C//DTD SVG 1.1//EN" "http://www.w3.org/Graphics/SVG/1.1/DTD/svg11.dtd">
<svg version="1.1" xmlns="http://www.w3.org/2000/svg" xmlns:xlink="http://www.w3.org/1999/xlink" x="0px" y="0px" viewBox="0 0 256 256" enable-background="new 0 0 256 256" xml:space="preserve">
<metadata> Svg Vector Icons : http://www.onlinewebfonts.com/icon </metadata>
<g> <path fill="#000000" d="M196.8,246H59.2C31.6,246,10,224.4,10,196.8V59.2C10,31.6,31.6,10,59.2,10h137.7 c27.5,0,49.2,21.6,49.2,49.2v137.7C246,224.4,224.4,246,196.8,246z M59.2,29.7c-16.7,0-29.5,12.8-29.5,29.5v137.7 c0,16.7,12.8,29.5,29.5,29.5h137.7c16.7,0,29.5-12.8,29.5-29.5V59.2c0-16.7-12.8-29.5-29.5-29.5H59.2z M98.5,108.3 c-3,0-4.9-1-6.9-2.9L62.1,75.9c-3.9-3.9-3.9-9.8,0-13.8c3.9-3.9,9.8-3.9,13.8,0l29.5,29.5c3.9,3.9,3.9,9.8,0,13.8 C103.4,107.4,101.5,108.3,98.5,108.3z M69,137.8c-3,0-4.9-1-6.9-2.9c-3.9-3.9-3.9-9.8,0-13.8l29.5-29.5c3.9-3.9,9.8-3.9,13.8,0 c3.9,3.9,3.9,9.8,0,13.8l-29.5,29.5C73.9,136.8,72,137.8,69,137.8z M157.5,137.8h-39.3c-5.9,0-9.8-3.9-9.8-9.8 c0-5.9,3.9-9.8,9.8-9.8h39.3c5.9,0,9.8,3.9,9.8,9.8C167.3,133.9,163.4,137.8,157.5,137.8z"/></g>
</svg>