<?xml version="1.0" encoding="utf-8"?>
<!-- Svg Vector Icons : http://www.onlinewebfonts.com/icon -->
<!DOCTYPE svg PUBLIC "-//W3C//DTD SVG 1.1//EN" "http://www.w3.org/Graphics/SVG/1.1/DTD/svg11.dtd">
<svg version="1.1" xmlns="http://www.w3.org/2000/svg" xmlns:xlink="http://www.w3.org/1999/xlink" x="0px" y="0px" viewBox="0 0 256 256" enable-background="new 0 0 256 256" xml:space="preserve">
<metadata> Svg Vector Icons : http://www.onlinewebfonts.com/icon </metadata>
<g><g><g><path fill="#000000" d="M122,10.9c-0.4,0.1-2.3,0.4-4.1,0.7c-12,1.9-24.3,8.6-33.3,18C76,38.5,70.7,48.6,68,61c-1.2,5.7-1.4,17.9-0.5,24.5C72,115,84.5,138,102.1,149.2c1.8,1.2,3.3,2.2,3.2,2.3c0,0-2.4,0.6-5.2,1.3c-28.6,6.4-58,22.7-74.4,41c-7,7.9-12,16.6-14.3,24.9c-0.8,3.1-1,5.3-1.2,15.1L10,245.3l69.9-0.3c38.4-0.2,91.5-0.3,118-0.3H246l-0.2-11.4c-0.2-10.8-0.3-11.7-1.5-15.5c-6.1-20-25.3-38.8-53.9-52.8c-12.1-5.8-22.8-9.6-37.7-13.1c-1.3-0.3-1.3-0.3,1.4-2c13.6-8.1,24.5-24.3,30.4-45c9.2-32.2,5-57.1-12.9-75.7c-11.7-12.1-26.8-18.6-43.2-18.4C125.2,10.8,122.4,10.9,122,10.9z"/></g></g></g>
</svg>